<?xml version="1.0" encoding="UTF-8" standalone="no"?>
<svg width="296.926mm" height="209.973mm"
 viewBox="0 0 3507 2480"
 xmlns="http://www.w3.org/2000/svg" xmlns:xlink="http://www.w3.org/1999/xlink"  version="1.2" baseProfile="tiny">
<desc>Generated with Qt</desc>
<defs>
</defs>
<g fill="none" stroke="black" stroke-width="1" fill-rule="evenodd" stroke-linecap="square" stroke-linejoin="bevel" >

<g fill="none" stroke="#000000" stroke-opacity="1" stroke-width="1" stroke-linecap="square" stroke-linejoin="bevel" transform="matrix(1,0,0,1,0,0)"
font-family="Cantarell" font-size="45.8333" font-weight="400" font-style="normal" 
>
</g>

<g fill="none" stroke="#000000" stroke-opacity="1" stroke-width="1" stroke-linecap="square" stroke-linejoin="bevel" transform="matrix(11.8081,0,0,11.8081,0,0)"
font-family="Cantarell" font-size="45.8333" font-weight="400" font-style="normal" 
>
</g>

<g fill="#ffffff" fill-opacity="1" stroke="none" transform="matrix(0.999751,0,0,0.999751,0,0)"
font-family="Cantarell" font-size="45.8333" font-weight="400" font-style="normal" 
>
<path vector-effect="none" fill-rule="evenodd" d="M-1,-1 L3508.87,-1 L3508.87,2481.31 L-1,2481.31 L-1,-1"/>
</g>

<g fill="none" stroke="#000000" stroke-opacity="1" stroke-width="1" stroke-linecap="square" stroke-linejoin="bevel" transform="matrix(11.8081,0,0,11.8081,0,0)"
font-family="Cantarell" font-size="45.8333" font-weight="400" font-style="normal" 
>
</g>

<g fill="none" stroke="#000000" stroke-opacity="1" stroke-width="1" stroke-linecap="square" stroke-linejoin="bevel" transform="matrix(11.8081,0,0,11.8081,0,0)"
font-family="Cantarell" font-size="45.8333" font-weight="400" font-style="normal" 
>
</g>

<g fill="none" stroke="#000000" stroke-opacity="1" stroke-width="1" stroke-linecap="square" stroke-linejoin="bevel" transform="matrix(11.8081,0,0,11.8081,0,0)"
font-family="Cantarell" font-size="45.8333" font-weight="400" font-style="normal" 
>
</g>

<g fill="none" stroke="#000000" stroke-opacity="1" stroke-width="1" stroke-linecap="square" stroke-linejoin="bevel" transform="matrix(11.8081,0,0,11.8081,0,0)"
font-family="Cantarell" font-size="45.8333" font-weight="400" font-style="normal" 
>
</g>

<g fill="#ffffff" fill-opacity="1" stroke="none" transform="matrix(11.8081,0,0,11.8081,0,0)"
font-family="Cantarell" font-size="45.8333" font-weight="400" font-style="normal" 
>
<path vector-effect="non-scaling-stroke" fill-rule="evenodd" d="M0,0 L297,0 L297,210.406 L0,210.406 L0,0"/>
</g>

<g fill="none" stroke="#000000" stroke-opacity="1" stroke-width="1" stroke-linecap="square" stroke-linejoin="bevel" transform="matrix(11.8081,0,0,11.8081,0,0)"
font-family="Cantarell" font-size="45.8333" font-weight="400" font-style="normal" 
>
</g>

<g fill="#000000" fill-opacity="0" stroke="none" transform="matrix(0.999751,0,0,0.999751,0,0)"
font-family="Cantarell" font-size="45.8333" font-weight="400" font-style="normal" 
>
<path vector-effect="non-scaling-stroke" fill-rule="evenodd" d="M0,0 L3508,0 L3508,2485 L0,2485 L0,0"/>
</g>

<g fill="#e0e0e0" fill-opacity="1" stroke="#5d5d5d" stroke-opacity="1" stroke-width="2.12598" stroke-linecap="square" stroke-linejoin="bevel" transform="matrix(0.999751,0,0,0.999751,0,0)"
font-family="Cantarell" font-size="45.8333" font-weight="400" font-style="normal" 
>
<path vector-effect="none" fill-rule="evenodd" d="M3132.43,1199.9 L3393.19,1181.91 L3325.3,1271.57 L3338.38,1340.24 L3359.25,1340.99 L3401.71,1332.89 L3423.78,1331.24 L3596.62,1360.66 L3744.64,1429.81 L3823.56,1447.59 L3858.8,1460.37 L3858.8,1812.86 L3854.39,1816.55 L3827.04,1851.42 L3767.55,2022.2 L3719.21,2090.75 L3663.19,2146.46 L3599.26,2191.38 L3553.2,2237.38 L3552.6,2305.93 L3593.62,2358.65 L3662.71,2378.92 L3788.66,2440.84 L3786.14,2475.53 L3794.77,2509.54 L3779.54,2562.02 L3730.24,2588.19 L3657.07,2586.82 L3584.51,2594.61 L3428.46,2637.52 L3283.92,2658.27 L3218.91,2683.58 L3159.47,2733.5 L3019.1,2733.5 L2990.89,2645.86 L2934.99,2617.34 L2880.06,2676.87 L2739.6,2728.23 L2689.58,2668.71 L2626.61,2621.99 L2585.95,2599.89 L2541.57,2590.68 L2448.25,2605.32 L2414.55,2610.83 L2371.36,2623.91 L2332.86,2629.49 L2313.55,2612.51 L2299.16,2617.55 L2284.76,2620.49 L2272.65,2625.56 L2265.21,2636.98 L2254.9,2637.85 L2206.68,2591.52 L2201.4,2514.58 L2189.17,2500.3 L2172.73,2487.83 L2158.22,2455.2 L2167.93,2420 L2200.68,2391.51 L2226.95,2357.12 L2227.43,2266.44 L2258.97,2233.48 L2281.16,2223.11 L2320.03,2193.72 L2323.03,2146.34 L2286.56,2074.7 L2278.77,2020.13 L2280.56,1984.59 L2295.56,1908.31 L2330.1,1833.55 L2387.8,1628.44 L2424.02,1556.44 L2489.27,1507.62 L2531.25,1472.42 L2567.96,1430.5 L2656.96,1349.59 L2694.14,1302.22 L2708.05,1241.37 L2730.84,1205.84 L2770.07,1186.77 L2922.64,1157.02 L3073.41,1173.87 L3102.2,1189.08 L3132.43,1199.9"/>
<path vector-effect="none" fill-rule="evenodd" d="M3858.8,2069.61 L3719.21,2090.75 L3767.55,2022.2 L3827.04,1851.42 L3854.39,1816.55 L3858.8,1812.86 L3858.8,1460.37 L3823.56,1447.59 L3744.64,1429.81 L3596.62,1360.66 L3423.78,1331.24 L3401.71,1332.89 L3359.25,1340.99 L3338.38,1340.24 L3325.3,1271.57 L3393.19,1181.91 L3461.08,1157.14 L3519.97,1114.92 L3579.23,1060.46 L3605.02,1053.3 L3654.8,1027.51 L3736.84,957.638 L3755.91,914.127 L3749.19,888.219 L3735.76,864.08 L3714.65,812.173 L3703.37,757.327 L3728.8,712.317 L3779.9,702.121 L3858.8,732.588 L3858.8,2069.61"/>
<path vector-effect="none" fill-rule="evenodd" d="M436.982,257.329 L370.891,266.115 L295.925,252.471 L272.295,264.076 L266.658,290.494 L276.733,331.756 L301.562,366.21 L315.716,426.124 L300.363,501.42 L334.548,548.41 L361.056,593.18 L312.477,641.248 L240.389,666.497 L177.177,696.754 L37.0795,742.363 L11.7707,804.646 L25.4446,855.803 L29.8827,882.461 L-16.6567,892.297 L-145,806.745 L-169.949,811.513 L-220.446,805.186 L-244.676,811.333 L-302.85,837.961 L-348.55,806.505 L-350.8,800.243 L-350.8,-223.605 L-333.436,-236.462 L-310.766,-217.751 L-286.777,-201.438 L-223.805,-200.718 L-163.711,-157.417 L-104.578,-106.26 L-51.4413,-92.1664 L39.9582,-91.3868 L61.9085,-67.2175 L72.3438,-40.5293 L87.0973,-16.39 L247.346,135.583 L297.964,161.881 L356.858,169.318 L406.995,203.263 L436.982,257.329"/>
<path vector-effect="none" fill-rule="evenodd" d="M2146.82,495.003 L2235.34,470.654 L2427.26,491.825 L2484.35,526.129 L2542.41,541.872 L2646.76,514.285 L2754.83,514.285 L2854.87,528.798 L2946.87,566.971 L2989.21,670.545 L2939.67,780.267 L2913.4,822.248 L2890.85,866.329 L2860.39,958.298 L2813.61,1063.64 L2809.17,1082.98 L2800.77,1099.89 L2773.31,1139.15 L2770.07,1186.77 L2730.84,1205.84 L2708.05,1241.37 L2694.14,1302.22 L2656.96,1349.59 L2567.96,1430.5 L2531.25,1472.42 L2489.27,1507.62 L2439.49,1466.96 L2410.11,1406.9 L2366.93,1352.53 L2306.47,1331.48 L2212.31,1351.15 L2123.07,1390.86 L2071.98,1423.84 L2022.44,1520.1 L1990.29,1555.27 L1941,1634.83 L1878.26,1702.57 L1447.29,1936.07 L1472.79,2149.05 L1411.92,2171.97 L1268.53,2127.55 L1163.57,2106.05 L963.309,2093.5 L982.86,2022.65 L988.617,1962.7 L1042.47,1935.83 L1030.36,1893.43 L1006.85,1853.67 L1000.61,1804.25 L1011.89,1754.8 L980.701,1677.44 L793.104,1675.67 L724.495,1618.37 L643.411,1442.1 L674.237,1393.58 L721.736,1354.39 L824.41,1225.72 L829.568,1171.47 L817.693,1118.28 L822.251,1064.36 L741.647,981.957 L687.191,898.114 L719.817,838.711 L743.566,776.009 L743.326,747.941 L746.205,719.634 L758.56,695.584 L774.273,674.114 L1037.8,706.409 L1167.82,641.668 L1219.64,628.054 L1595.91,438.778 L1693.54,333.705 L1754.48,337.123 L1810.97,359.553 L1821.53,370.229 L1836.28,395.058 L1846.24,404.353 L1883.66,416.258 L1921.92,420.816 L2032.03,483.128 L2146.82,495.003"/>
<path vector-effect="none" fill-rule="evenodd" d="M370.891,266.115 L436.982,257.329 L456.054,261.047 L490.598,272.592 L498.755,287.285 L503.073,312.174 L513.988,334.394 L543.975,362.402 L580.558,377.365 L603.468,412.75 L617.982,458.779 L711.3,503.909 L737.569,538.934 L727.253,566.222 L731.571,592.67 L741.887,617.199 L759.519,645.147 L774.273,674.114 L758.56,695.584 L746.205,719.634 L743.326,747.941 L743.566,776.009 L719.817,838.711 L687.191,898.114 L741.647,981.957 L822.251,1064.36 L817.693,1118.28 L829.568,1171.47 L824.41,1225.72 L721.736,1354.39 L674.237,1393.58 L643.411,1442.1 L521.904,1478.06 L462.891,1464.8 L412.873,1426.51 L381.927,1413.29 L314.756,1415.47 L216.52,1438.71 L149.949,1431.52 L105.929,1409.15 L67.546,1377.72 L19.6872,1348.51 L-0.583834,1333.22 L-1.54341,1277.09 L33.4811,1218.85 L23.4055,1165.84 L-0.823728,1160.08 L-50.9615,1167.75 L-109.256,1154.26 L-162.752,1127.12 L-179.185,1068.44 L-139.002,1016.11 L-119.691,957.428 L-157.594,853.674 L-145,806.745 L-16.6567,892.297 L29.8827,882.461 L25.4446,855.803 L11.7707,804.646 L37.0795,742.363 L177.177,696.754 L240.389,666.497 L312.477,641.248 L361.056,593.18 L334.548,548.41 L300.363,501.42 L315.716,426.124 L301.562,366.21 L276.733,331.756 L266.658,290.494 L272.295,264.076 L295.925,252.471 L370.891,266.115"/>
<path vector-effect="none" fill-rule="evenodd" d="M3858.8,-248.5 L3858.8,732.588 L3779.9,702.121 L3728.8,712.317 L3703.37,757.327 L3714.65,812.173 L3735.76,864.08 L3749.19,888.219 L3755.91,914.127 L3736.84,957.638 L3654.8,1027.51 L3605.02,1053.3 L3579.23,1060.46 L3519.97,1114.92 L3461.08,1157.14 L3393.19,1181.91 L3132.43,1199.9 L3102.2,1189.08 L3073.41,1173.87 L2922.64,1157.02 L2770.07,1186.77 L2773.31,1139.15 L2800.77,1099.89 L2809.17,1082.98 L2813.61,1063.64 L2860.39,958.298 L2890.85,866.329 L2913.4,822.248 L2939.67,780.267 L2989.21,670.545 L2946.87,566.971 L2854.87,528.798 L2754.83,514.285 L2646.76,514.285 L2542.41,541.872 L2484.35,526.129 L2427.26,491.825 L2235.34,470.654 L2146.82,495.003 L2032.03,483.128 L1921.92,420.816 L1883.66,416.258 L1846.24,404.353 L1836.28,395.058 L1821.53,370.229 L1810.97,359.553 L1754.48,337.123 L1693.54,333.705 L1737.33,293.193 L1790.34,263.176 L1826.69,225.663 L1854.99,181.192 L1890.62,138.761 L1930.8,100.888 L2030.72,40.9146 L2115.52,-23.9167 L2149.82,-118.855 L2146.94,-146.502 L2135.07,-171.331 L2094.41,-188.394 L2050.27,-248.5 L3858.8,-248.5"/>
<path vector-effect="none" fill-rule="evenodd" d="M-350.8,1874.27 L-320.002,1868.69 L-233.041,1879.79 L-217.568,1939.73 L-179.065,1986.93 L-123.529,2004.32 L-69.7931,2027.14 L-25.4128,2077.22 L14.7694,2133.63 L60.589,2168.89 L98.4922,2210.69 L111.686,2276.63 L83.8587,2336.7 L57.9502,2361.89 L38.8787,2391.81 L32.6414,2444.2 L33.1212,2478.38 L77.2616,2528.55 L106.049,2547.14 L149.11,2584.63 L175.978,2634.46 L161.944,2671.65 L140.714,2684.45 L79.1808,2700.91 L44.0364,2715.4 L20.4293,2733.5 L-335.917,2733.5 L-350.8,2713.65 L-350.8,1874.27"/>
<path vector-effect="none" fill-rule="evenodd" d="M2489.27,1507.62 L2424.02,1556.44 L2387.8,1628.44 L2330.1,1833.55 L2295.56,1908.31 L2280.56,1984.59 L2278.77,2020.13 L2286.56,2074.7 L2323.03,2146.34 L2320.03,2193.72 L2281.16,2223.11 L2258.97,2233.48 L2227.43,2266.44 L2138.16,2265.96 L2030.28,2271.95 L1976.34,2343.87 L1910.41,2463.75 L1832.49,2613.59 L1832.49,2703.49 L1844.91,2733.5 L593.204,2733.5 L581.758,2726.46 L538.217,2661.81 L500.194,2592.99 L498.155,2537.97 L503.673,2512.36 L532.94,2475.95 L551.291,2464.38 L567.844,2450.41 L585.596,2401.14 L577.32,2370.04 L547.813,2311.93 L542.175,2253.57 L579.239,2211.29 L638.253,2214.83 L697.866,2229.76 L811.336,2214.86 L963.309,2093.5 L1163.57,2106.05 L1268.53,2127.55 L1411.92,2171.97 L1472.79,2149.05 L1447.29,1936.07 L1878.26,1702.57 L1941,1634.83 L1990.29,1555.27 L2022.44,1520.1 L2071.98,1423.84 L2123.07,1390.86 L2212.31,1351.15 L2306.47,1331.48 L2366.93,1352.53 L2410.11,1406.9 L2439.49,1466.96 L2489.27,1507.62"/>
<path vector-effect="none" fill-rule="evenodd" d="M521.904,1478.06 L643.411,1442.1 L724.495,1618.37 L793.104,1675.67 L980.701,1677.44 L1011.89,1754.8 L1000.61,1804.25 L1006.85,1853.67 L1030.36,1893.43 L1042.47,1935.83 L988.617,1962.7 L982.86,2022.65 L963.309,2093.5 L811.336,2214.86 L697.866,2229.76 L638.253,2214.83 L579.239,2211.29 L542.175,2253.57 L547.813,2311.93 L577.32,2370.04 L585.596,2401.14 L567.844,2450.41 L551.291,2464.38 L532.94,2475.95 L503.673,2512.36 L498.155,2537.97 L500.194,2592.99 L418.87,2577.13 L338.026,2603.97 L302.042,2622.23 L263.299,2632.97 L175.978,2634.46 L149.11,2584.63 L106.049,2547.14 L77.2616,2528.55 L33.1212,2478.38 L32.6414,2444.2 L38.8787,2391.81 L57.9502,2361.89 L83.8587,2336.7 L111.686,2276.63 L98.4922,2210.69 L60.589,2168.89 L14.7694,2133.63 L-25.4128,2077.22 L-69.7931,2027.14 L-123.529,2004.32 L-179.065,1986.93 L-217.568,1939.73 L-233.041,1879.79 L149.949,1431.52 L216.52,1438.71 L314.756,1415.47 L381.927,1413.29 L412.873,1426.51 L462.891,1464.8 L521.904,1478.06"/>
<path vector-effect="none" fill-rule="evenodd" d="M-350.8,800.243 L-348.55,806.505 L-302.85,837.961 L-244.676,811.333 L-220.446,805.186 L-169.949,811.513 L-145,806.745 L-157.594,853.674 L-119.691,957.428 L-139.002,1016.11 L-179.185,1068.44 L-162.752,1127.12 L-109.256,1154.26 L-50.9615,1167.75 L-0.823728,1160.08 L23.4055,1165.84 L33.4811,1218.85 L-1.54341,1277.09 L-0.583834,1333.22 L19.6872,1348.51 L67.546,1377.72 L105.929,1409.15 L149.949,1431.52 L-233.041,1879.79 L-320.002,1868.69 L-350.8,1874.27 L-350.8,800.243"/>
<path vector-effect="none" fill-rule="evenodd" d="M2050.27,-248.5 L2094.41,-188.394 L2135.07,-171.331 L2146.94,-146.502 L2149.82,-118.855 L2115.52,-23.9167 L2030.72,40.9146 L1930.8,100.888 L1890.62,138.761 L1854.99,181.192 L1826.69,225.663 L1790.34,263.176 L1737.33,293.193 L1693.54,333.705 L1595.91,438.778 L1219.64,628.054 L1167.82,641.668 L1037.8,706.409 L774.273,674.114 L759.519,645.147 L741.887,617.199 L731.571,592.67 L727.253,566.222 L737.569,538.934 L711.3,503.909 L617.982,458.779 L603.468,412.75 L580.558,377.365 L543.975,362.402 L513.988,334.394 L503.073,312.174 L498.755,287.285 L490.598,272.592 L456.054,261.047 L436.982,257.329 L406.995,203.263 L356.858,169.318 L297.964,161.881 L247.346,135.583 L87.0973,-16.39 L72.3438,-40.5293 L61.9085,-67.2175 L39.9582,-91.3868 L-51.4413,-92.1664 L-104.578,-106.26 L-163.711,-157.417 L-223.805,-200.718 L-286.777,-201.438 L-310.766,-217.751 L-333.436,-236.462 L-339.541,-248.5 L2050.27,-248.5"/>
<path vector-effect="none" fill-rule="evenodd" d="M2227.43,2266.44 L2226.95,2357.12 L2200.68,2391.51 L2167.93,2420 L2158.22,2455.2 L2172.73,2487.83 L2189.17,2500.3 L2201.4,2514.58 L2206.68,2591.52 L2254.9,2637.85 L2265.21,2636.98 L2272.65,2625.56 L2284.76,2620.49 L2299.16,2617.55 L2313.55,2612.51 L2332.86,2629.49 L2371.36,2623.91 L2414.55,2610.83 L2448.25,2605.32 L2541.57,2590.68 L2585.95,2599.89 L2626.61,2621.99 L2689.58,2668.71 L2739.6,2728.23 L2733.89,2733.5 L1844.91,2733.5 L1832.49,2703.49 L1832.49,2613.59 L1910.41,2463.75 L1976.34,2343.87 L2030.28,2271.95 L2138.16,2265.96 L2227.43,2266.44"/>
</g>

<g fill="#fefee9" fill-opacity="1" stroke="#dcdccc" stroke-opacity="1" stroke-width="3.07087" stroke-linecap="square" stroke-linejoin="bevel" transform="matrix(0.999751,0,0,0.999751,0,0)"
font-family="Cantarell" font-size="45.8333" font-weight="400" font-style="normal" 
>
<path vector-effect="none" fill-rule="evenodd" d="M2146.82,495.003 L2235.34,470.654 L2427.26,491.825 L2484.35,526.129 L2542.41,541.872 L2646.76,514.285 L2754.83,514.285 L2854.87,528.798 L2946.87,566.971 L2989.21,670.545 L2939.67,780.267 L2913.4,822.248 L2890.85,866.329 L2860.39,958.298 L2813.61,1063.64 L2809.17,1082.98 L2800.77,1099.89 L2773.31,1139.15 L2770.07,1186.77 L2730.84,1205.84 L2708.05,1241.37 L2694.14,1302.22 L2656.96,1349.59 L2567.96,1430.5 L2531.25,1472.42 L2489.27,1507.62 L2439.49,1466.96 L2410.11,1406.9 L2366.93,1352.53 L2306.47,1331.48 L2212.31,1351.15 L2123.07,1390.86 L2071.98,1423.84 L2022.44,1520.1 L1990.29,1555.27 L1941,1634.83 L1878.26,1702.57 L1447.29,1936.07 L1472.79,2149.05 L1411.92,2171.97 L1268.53,2127.55 L1163.57,2106.05 L963.309,2093.5 L982.86,2022.65 L988.617,1962.7 L1042.47,1935.83 L1030.36,1893.43 L1006.85,1853.67 L1000.61,1804.25 L1011.89,1754.8 L980.701,1677.44 L793.104,1675.67 L724.495,1618.37 L643.411,1442.1 L674.237,1393.58 L721.736,1354.39 L824.41,1225.72 L829.568,1171.47 L817.693,1118.28 L822.251,1064.36 L741.647,981.957 L687.191,898.114 L719.817,838.711 L743.566,776.009 L743.326,747.941 L746.205,719.634 L758.56,695.584 L774.273,674.114 L1037.8,706.409 L1167.82,641.668 L1219.64,628.054 L1595.91,438.778 L1693.54,333.705 L1754.48,337.123 L1810.97,359.553 L1821.53,370.229 L1836.28,395.058 L1846.24,404.353 L1883.66,416.258 L1921.92,420.816 L2032.03,483.128 L2146.82,495.003"/>
</g>

<g fill="#c6ecff" fill-opacity="1" stroke="#0978ab" stroke-opacity="1" stroke-width="3.07087" stroke-linecap="square" stroke-linejoin="bevel" transform="matrix(0.999751,0,0,0.999751,0,0)"
font-family="Cantarell" font-size="45.8333" font-weight="400" font-style="normal" 
>
<path vector-effect="none" fill-rule="evenodd" d="M30.4574,496.871 L26.6323,481.004 L9.06527,469.316 L6.94023,445.515 L30.4574,432.411 L58.7913,455.503 L69.4165,478.949 L47.0327,495.525 L30.4574,496.871"/>
<path vector-effect="none" fill-rule="evenodd" d="M1035.89,1506.19 L1022,1490.68 L1014.92,1465.11 L1016.62,1432.67 L1039.85,1423.67 L1054.3,1450.59 L1078.95,1476.51 L1095.24,1498.54 L1068.75,1513.07 L1035.89,1506.19"/>
<path vector-effect="none" fill-rule="evenodd" d="M2981.57,2183.8 L2958.62,2198.67 L2928.59,2215.18 L2915.84,2226.87 L2890.62,2212.13 L2916.12,2195.91 L2945.31,2181.53 L2972.93,2162.83 L2981.57,2183.8"/>
</g>

<g fill="none" stroke="#000000" stroke-opacity="1" stroke-width="1" stroke-linecap="square" stroke-linejoin="bevel" transform="matrix(11.8081,0,0,11.8081,0,0)"
font-family="Cantarell" font-size="45.8333" font-weight="400" font-style="normal" 
>
</g>

<g fill="none" stroke="#000000" stroke-opacity="1" stroke-width="1" stroke-linecap="square" stroke-linejoin="bevel" transform="matrix(11.8081,0,0,11.8081,0,0)"
font-family="Cantarell" font-size="45.8333" font-weight="400" font-style="normal" 
>
</g>

<g fill="none" stroke="#000000" stroke-opacity="1" stroke-width="1" stroke-linecap="square" stroke-linejoin="bevel" transform="matrix(11.8081,0,0,11.8081,0,0)"
font-family="Cantarell" font-size="45.8333" font-weight="400" font-style="normal" 
>
</g>

<g fill="none" stroke="#000000" stroke-opacity="1" stroke-width="1" stroke-linecap="square" stroke-linejoin="bevel" transform="matrix(1,0,0,1,0,0)"
font-family="Cantarell" font-size="45.8333" font-weight="400" font-style="normal" 
>
</g>

<g fill="none" stroke="#000000" stroke-opacity="1" stroke-width="1" stroke-linecap="square" stroke-linejoin="bevel" transform="matrix(11.8081,0,0,11.8081,0,0)"
font-family="Cantarell" font-size="45.8333" font-weight="400" font-style="normal" 
>
</g>

<g fill="none" stroke="#000000" stroke-opacity="1" stroke-width="1" stroke-linecap="square" stroke-linejoin="bevel" transform="matrix(11.8081,0,0,11.8081,0,0)"
font-family="Cantarell" font-size="45.8333" font-weight="400" font-style="normal" 
>
</g>

<g fill="none" stroke="#000000" stroke-opacity="1" stroke-width="1" stroke-linecap="square" stroke-linejoin="bevel" transform="matrix(11.8081,0,0,11.8081,0,0)"
font-family="Cantarell" font-size="45.8333" font-weight="400" font-style="normal" 
>
</g>

<g fill="none" stroke="#000000" stroke-opacity="1" stroke-width="1" stroke-linecap="square" stroke-linejoin="bevel" transform="matrix(11.8081,0,0,11.8081,0,0)"
font-family="Cantarell" font-size="45.8333" font-weight="400" font-style="normal" 
>
</g>

<g fill="none" stroke="#000000" stroke-opacity="1" stroke-width="1" stroke-linecap="square" stroke-linejoin="bevel" transform="matrix(11.8081,0,0,11.8081,0,0)"
font-family="Cantarell" font-size="45.8333" font-weight="400" font-style="normal" 
>
</g>

<g fill="none" stroke="#000000" stroke-opacity="1" stroke-width="1" stroke-linecap="square" stroke-linejoin="bevel" transform="matrix(11.8081,0,0,11.8081,0,0)"
font-family="Cantarell" font-size="45.8333" font-weight="400" font-style="normal" 
>
</g>

<g fill="none" stroke="#000000" stroke-opacity="1" stroke-width="1" stroke-linecap="square" stroke-linejoin="bevel" transform="matrix(1,0,0,1,0,0)"
font-family="Cantarell" font-size="45.8333" font-weight="400" font-style="normal" 
>
</g>
</g>
</svg>
