<?xml version="1.0" encoding="UTF-8"?>
<!DOCTYPE svg PUBLIC "-//W3C//DTD SVG 1.1//EN" "http://www.w3.org/Graphics/SVG/1.1/DTD/svg11.dtd">
<!-- Creator: CorelDRAW -->
<svg xmlns="http://www.w3.org/2000/svg" xml:space="preserve" width="914.525mm" height="233.736mm" version="1.1" style="shape-rendering:geometricPrecision; text-rendering:geometricPrecision; image-rendering:optimizeQuality; fill-rule:evenodd; clip-rule:evenodd"
viewBox="0 0 99865.52 25523.86"
 xmlns:xlink="http://www.w3.org/1999/xlink"
 xmlns:xodm="http://www.corel.com/coreldraw/odm/2003">
 <defs>
  <style type="text/css">
   <![CDATA[
    .fil0 {fill:#2B2A29;fill-rule:nonzero}
    .fil5 {fill:#8A241E;fill-rule:nonzero}
    .fil6 {fill:#B22425;fill-rule:nonzero}
    .fil3 {fill:#B42125;fill-rule:nonzero}
    .fil1 {fill:#B52125;fill-rule:nonzero}
    .fil2 {fill:#B62125;fill-rule:nonzero}
    .fil4 {fill:#B62225;fill-rule:nonzero}
   ]]>
  </style>
 </defs>
 <g id="Katman_x0020_1">
  <metadata id="CorelCorpID_0Corel-Layer"/>
  <path id="XMLID_123_" class="fil0" d="M37640.38 8341.2c69.34,2.89 135.79,8.67 205.13,11.55 222.47,8.67 522.96,-104.01 641.42,40.45 112.68,135.79 40.45,427.6 40.45,650.07 2.89,1398.38 0,2796.78 0,4195.15 0,1199.03 699.19,2195.81 1805.76,2574.31 1100.79,378.48 2265.15,14.45 3004.81,-930.33 104.01,-132.91 135.79,-268.7 135.79,-433.39 -2.89,-1935.78 2.89,-3871.56 -8.67,-5810.23 0,-239.8 52.01,-317.81 300.48,-312.04 704.97,14.45 1407.06,14.45 2112.02,-5.78 242.7,-5.78 286.04,75.12 280.26,294.71 -11.55,537.4 2.89,1074.79 5.78,1612.2 83.79,109.79 75.12,239.8 75.12,364.05 0,2539.63 34.67,5079.27 -11.55,7618.89 -34.67,1915.56 -965.01,3357.29 -2582.98,4365.63 -112.68,72.24 -231.14,153.13 -378.48,130.01 -615.4,280.26 -1262.6,439.17 -1938.67,491.17 -231.14,17.34 -346.71,-2.89 -335.15,-294.71 26,-681.86 20.22,-1366.61 2.89,-2051.35 -5.78,-248.47 43.34,-343.81 320.71,-361.15 1138.36,-75.12 2138.04,-1173.03 2138.04,-2340.28 -384.27,141.58 -756.98,288.92 -1152.81,361.15 -1528.41,280.26 -2944.12,46.22 -4218.27,-878.32 -23.12,-17.34 -52.01,-26 -78.01,-37.56 -791.65,-652.97 -1441.73,-1415.73 -1811.55,-2392.28 -231.14,-606.74 -329.38,-1236.6 -329.38,-1883.78 2.89,-1574.62 5.78,-3149.25 -2.89,-4720.99 0,-205.13 49.12,-262.92 254.25,-257.14 508.51,17.35 1017.02,2.9 1525.53,0.01z"/>
  <path id="XMLID_121_" class="fil0" d="M61889.7 18274.38c-684.75,-5.78 -1366.61,-20.22 -2051.35,-8.67 -236.92,5.78 -288.92,-69.34 -288.92,-294.71 8.67,-2571.42 5.78,-5142.82 5.78,-7714.25 0,-106.91 -8.67,-213.8 -14.45,-320.71 5.78,-976.56 11.55,-1956.01 14.45,-2932.57 2.89,-840.77 0,-1681.54 0,-2525.19 0,-115.57 -17.34,-225.37 121.35,-294.71 834.99,-427.6 1669.97,-860.99 2533.86,-1308.82 0,3247.5 0,6460.32 0,9670.26 17.34,8.67 37.56,17.34 54.89,26 167.58,-225.37 338.04,-447.83 505.61,-673.19 817.65,-1118.14 1632.42,-2236.27 2450.07,-3354.4 66.45,-92.46 112.68,-196.47 262.91,-193.58 1045.9,5.78 2088.92,2.89 3186.82,2.89 -260.04,361.15 -491.17,690.52 -728.09,1017.01 -939.01,1291.49 -1869.33,2591.64 -2828.55,3868.67 -179.13,239.8 -121.35,369.83 20.22,563.4 1051.67,1427.28 2097.58,2860.35 3143.48,4293.4 31.78,46.22 63.56,92.46 118.46,176.25 -421.83,0 -808.98,0 -1193.25,0 -626.97,0 -1251.04,-8.67 -1877.99,5.78 -179.13,2.89 -277.37,-57.79 -378.48,-199.35 -884.11,-1225.03 -1773.99,-2444.3 -2666.76,-3669.33 -95.34,66.45 -49.12,161.8 -49.12,239.8 -2.89,1086.35 -14.45,2172.71 5.78,3259.05 2.86,283.16 -78.03,390.07 -346.73,366.95z"/>
  <path id="XMLID_119_" class="fil0" d="M55123.11 13515.81c0,-1643.96 2.89,-3287.94 2.89,-4931.91 -17.34,-173.35 40.45,-242.7 236.92,-239.8 803.2,14.45 1609.3,5.78 2412.51,5.78 8.67,468.06 20.22,939.01 20.22,1407.06 2.89,2727.44 -2.89,5457.75 8.67,8185.19 0,260.04 -63.56,340.93 -323.59,320.71 -291.81,-20.22 -586.51,2.89 -878.32,8.67 -95.34,86.68 -216.7,83.79 -332.26,80.89 -398.72,-14.45 -803.2,40.45 -1199.03,-49.12 -121.35,-28.89 -228.25,37.56 -338.04,78.01 -2814.11,1014.12 -5818.92,-346.71 -6942.83,-3108.82 -239.8,-586.51 -343.81,-1204.81 -364.05,-1831.78 -20.22,-684.73 -5.78,-1369.49 -2.89,-2054.24 0,-115.57 -17.34,-236.92 72.24,-335.15 2.89,-800.32 20.22,-1603.53 2.89,-2403.84 -5.78,-274.47 80.89,-314.93 323.59,-309.14 684.75,17.34 1369.5,14.45 2051.35,0 242.7,-5.78 329.38,37.56 326.48,312.04 -14.45,1210.58 2.89,2424.06 5.78,3634.66 118.46,144.46 72.24,317.81 78.01,479.61 17.34,485.38 -54.89,976.55 147.35,1447.49 384.27,895.66 1031.45,1464.84 1999.35,1623.75 901.44,147.35 1678.64,-124.24 2317.17,-780.1 216.7,-222.47 323.59,-473.84 317.81,-791.65 -8.69,-245.58 -69.36,-505.61 57.77,-748.31z"/>
  <path id="XMLID_118_" class="fil0" d="M34482.44 13310.68c0,1554.41 -5.78,3111.7 5.78,4666.11 2.89,239.8 -69.34,297.59 -294.71,286.04 -369.83,-17.34 -745.43,17.34 -1115.24,-11.55 -424.72,-31.78 -846.55,0 -1277.04,-52.01 -395.83,-46.22 -808.98,262.92 -1239.48,335.15 -1771.1,288.92 -3339.95,-98.24 -4671.89,-1343.49 -849.44,-797.43 -1407.06,-1750.88 -1612.2,-2900.79 -46.22,-268.7 -83.79,-540.29 -83.79,-811.88 -8.67,-1623.74 0,-3247.49 -8.67,-4874.12 0,-199.35 40.45,-262.92 251.37,-260.04 725.19,14.45 1447.5,11.55 2172.71,0 193.58,-2.89 242.7,52.01 239.8,239.8 -8.67,1496.62 -5.78,2993.24 -2.89,4489.87 2.89,696.3 156.02,1337.7 609.63,1901.11 1092.14,1355.05 3238.83,1297.27 4241.39,-124.24 95.34,-135.79 127.13,-271.59 124.24,-436.27 -2.89,-1927.11 0,-3854.22 -8.67,-5781.34 0,-219.58 40.45,-297.59 280.26,-291.81 704.97,17.34 1409.95,14.45 2112.02,0 213.8,-2.89 274.47,43.34 274.47,268.7 -2.86,1568.85 2.92,3134.82 2.92,4700.77z"/>
  <path id="XMLID_117_" class="fil0" d="M95765.92 18629.76c-1508.18,-17.34 -2900.79,-387.16 -4122.93,-1308.82 -150.23,-112.68 -144.45,-184.91 -37.56,-309.14 476.72,-557.63 950.56,-1112.36 1415.73,-1678.64 101.12,-124.24 176.25,-132.91 309.14,-57.79 655.85,375.6 1355.05,626.97 2114.92,676.09 462.27,31.78 915.89,-14.45 1352.16,-161.8 210.92,-72.24 372.71,-213.8 387.16,-462.27 14.45,-251.37 -153.13,-375.6 -352.48,-444.94 -658.74,-231.14 -1343.49,-366.93 -2016.68,-540.29 -676.09,-176.25 -1346.38,-335.15 -1906.89,-811.88 -1355.04,-1149.9 -1398.37,-3259.04 -89.57,-4466.74 962.11,-886.99 2086.02,-1175.91 3360.17,-1089.24 1256.82,83.79 2426.96,395.83 3478.63,1106.57 156.02,104.01 242.7,156.02 63.56,352.48 -488.28,531.62 -947.66,1089.24 -1407.06,1646.87 -104.01,124.24 -170.46,127.13 -306.26,57.79 -872.55,-459.39 -1797.1,-606.74 -2770.77,-439.17 -147.35,26 -283.14,72.24 -404.5,150.24 -187.8,121.35 -346.71,274.47 -300.48,522.96 43.34,228.25 228.25,329.38 436.27,381.38 733.86,182.02 1473.51,343.81 2204.48,537.4 1227.92,323.59 2195.81,982.32 2571.42,2256.48 427.6,1447.5 -283.14,3131.92 -2031.13,3776.22 -626.95,234.01 -1279.91,312.03 -1947.33,306.25z"/>
  <path id="XMLID_116_" class="fil1" d="M96124.19 23631.01c0,546.06 -8.67,1092.14 5.78,1638.2 2.89,179.13 -40.45,231.14 -225.37,228.25 -502.73,-5.78 -502.73,5.78 -502.73,-502.73 0,-860.99 -2.89,-1719.09 5.78,-2580.09 0,-106.91 -98.24,-300.48 83.79,-312.04 190.69,-11.55 418.94,-115.57 583.63,124.24 277.37,401.6 583.63,780.1 869.66,1175.91 106.91,147.35 173.35,202.25 306.26,8.67 265.81,-387.16 577.85,-739.64 832.1,-1132.58 179.13,-277.37 421.83,-173.35 650.07,-182.02 98.24,-2.89 75.12,98.24 75.12,161.8 2.89,1025.68 0,2051.35 2.89,3077.03 0,104.01 -28.89,150.24 -144.46,161.8 -586.51,63.56 -600.96,54.89 -603.85,-522.96 0,-439.17 0,-878.32 0,-1404.17 -248.47,326.48 -447.83,592.3 -650.07,858.1 -205.13,271.59 -416.05,271.59 -626.97,-5.78 -202.25,-268.7 -404.5,-543.18 -603.85,-814.77 -20.22,8.7 -37.55,17.36 -57.78,23.14z"/>
  <path id="XMLID_115_" class="fil2" d="M81579.8 23948.83c0,-485.39 0,-973.68 0,-1459.07 0,-401.6 0,-381.38 381.38,-407.38 280.26,-17.34 378.48,43.34 369.83,352.48 -26,907.22 -5.78,1817.33 -14.45,2727.44 0,106.91 95.34,306.26 -78.01,314.93 -202.25,8.67 -444.94,132.91 -618.3,-104.01 -401.6,-551.84 -806.1,-1103.69 -1210.58,-1652.64 -28.89,-40.45 -57.79,-78.01 -144.46,-190.69 0,338.04 0,598.07 0,860.99 0,312.04 -5.78,626.97 2.89,939.01 2.89,130.01 -40.45,158.91 -164.68,167.58 -566.29,28.89 -566.29,34.67 -569.18,-528.73 0,-840.77 -5.78,-1681.54 5.78,-2522.3 0,-115.57 -98.24,-326.48 86.68,-343.81 208.02,-20.22 453.61,-115.57 632.74,144.46 358.26,522.96 742.53,1028.57 1118.14,1539.96 43.34,60.67 95.34,118.46 141.58,176.25 20.2,-2.9 40.43,-8.68 60.65,-14.46z"/>
  <path id="XMLID_112_" class="fil1" d="M84581.71 23792.81c0,-496.94 5.78,-996.78 -2.89,-1493.74 -2.89,-164.68 37.56,-216.7 208.02,-213.8 615.4,8.67 1230.82,11.55 1846.22,0 190.69,-2.89 222.47,60.67 219.58,234.03 -2.89,502.73 5.78,502.73 -508.51,499.84 -254.25,0 -511.39,20.22 -762.76,-5.78 -297.59,-34.67 -260.04,141.58 -274.47,335.15 -17.34,231.14 54.89,309.14 288.92,286.04 231.14,-23.12 468.06,5.78 702.09,-8.67 179.13,-8.67 257.14,31.78 254.25,236.92 -5.78,496.94 5.78,496.94 -485.39,496.94 -135.79,0 -277.37,17.34 -410.27,-2.89 -283.14,-43.34 -369.83,54.89 -352.48,340.93 11.55,210.92 49.12,291.81 277.37,277.37 349.6,-20.22 702.09,2.89 1054.57,-8.67 161.8,-5.78 216.7,40.45 216.7,210.92 5.78,520.06 14.45,520.06 -511.39,520.06 -517.17,0 -1037.23,-5.78 -1554.41,2.89 -164.68,2.89 -213.8,-37.56 -210.92,-210.92 11.56,-499.84 5.79,-996.78 5.79,-1496.62 0,0 0,0 0,0z"/>
  <path id="XMLID_111_" class="fil2" d="M75206.15 23792.81c0,-496.94 8.67,-996.78 -2.89,-1493.74 -2.89,-164.68 40.45,-213.8 208.02,-210.92 615.4,8.67 1230.82,8.67 1846.22,0 156.02,-2.89 216.7,28.89 219.58,205.13 2.89,528.73 11.55,528.73 -517.17,525.84 -283.14,0 -566.29,0 -849.44,0 -280.26,-2.89 -164.68,210.92 -176.25,340.93 -11.55,121.35 -57.79,286.04 179.13,271.59 283.14,-14.45 566.29,2.89 849.44,-5.78 144.46,-2.89 202.25,31.78 205.13,193.58 14.45,537.4 23.12,537.4 -502.73,537.4 -127.13,0 -257.14,17.34 -381.38,-2.89 -309.14,-54.89 -384.27,78.01 -364.05,364.05 11.55,184.91 46.22,260.04 245.59,251.37 352.48,-14.45 702.09,2.89 1054.57,-5.78 179.13,-5.78 257.14,28.89 257.14,236.92 -5.78,494.06 5.78,494.06 -482.5,494.06 -528.73,0 -1054.57,-5.78 -1583.3,2.89 -167.58,2.89 -210.92,-46.22 -208.02,-210.92 11.58,-496.96 2.9,-996.79 2.9,-1493.74z"/>
  <path id="XMLID_110_" class="fil3" d="M89002.24 24142.41c0,-361.15 -11.55,-725.19 5.78,-1083.46 8.67,-202.25 -72.24,-260.04 -254.25,-242.7 -78.01,8.67 -158.91,-8.67 -234.03,5.78 -288.92,52.01 -364.05,-72.24 -346.71,-349.6 23.12,-381.38 5.78,-381.38 398.72,-381.38 577.85,0 1152.81,5.78 1730.65,-2.89 173.35,-2.89 257.14,20.22 254.25,231.14 -8.67,499.84 2.89,514.29 -511.39,496.94 -257.14,-8.67 -335.15,60.67 -326.48,320.71 20.22,713.64 0,1427.28 14.45,2140.92 2.89,184.91 -49.12,228.25 -228.25,225.37 -502.73,-5.78 -502.73,2.89 -496.94,-505.61 -0.01,-288.92 -2.9,-572.06 -5.79,-855.21 2.88,0 2.88,0 0,0z"/>
  <path id="XMLID_109_" class="fil4" d="M66142.63 23789.93c0,508.51 -5.78,1014.12 2.89,1522.62 2.89,138.68 -31.78,179.13 -176.25,184.91 -560.5,20.22 -560.5,26 -560.5,-534.51 0,-869.66 5.78,-1739.32 -5.78,-2606.09 -2.89,-210.92 37.55,-286.04 265.8,-277.37 476.72,17.34 476.72,2.89 476.72,479.61 0,410.27 0,820.55 0,1230.82 2.89,0 0,0 -2.89,0z"/>
  <path id="XMLID_108_" class="fil1" d="M95895.94 20620.44c-546.06,2.89 -829.21,-277.37 -829.21,-829.21 -2.89,-546.06 280.26,-834.99 823.43,-849.44 546.06,-14.45 855.22,286.04 863.88,840.77 5.78,554.72 -280.26,834.98 -858.1,837.88z"/>
  <path id="XMLID_107_" class="fil0" d="M28472.84 5518.43c554.73,0 823.43,274.47 817.65,826.32 -8.67,540.29 -303.37,832.1 -840.77,829.21 -537.4,0 -834.99,-300.48 -834.99,-834.99 2.89,-563.4 271.59,-820.53 858.11,-820.53z"/>
  <path id="XMLID_106_" class="fil0" d="M52025.85 7127.72c-150.24,20.22 -297.59,60.67 -453.61,46.22 -476.72,-49.12 -684.75,-265.81 -730.98,-762.76 2.89,-306.26 23.12,-606.74 320.71,-791.65 366.93,-228.25 1034.35,-104.01 1227.92,225.37 268.71,462.28 106.91,1037.24 -364.04,1282.82z"/>
  <path id="XMLID_105_" class="fil0" d="M53008.2 6336.08c0,-592.3 234.03,-820.55 840.77,-814.77 543.18,2.89 811.88,268.7 817.65,803.2 5.78,543.18 -303.37,855.22 -846.55,852.32 -548.96,-5.78 -811.88,-277.37 -811.88,-840.76z"/>
  <path id="XMLID_104_" class="fil0" d="M30622.43 5521.31c566.29,2.89 814.77,257.14 808.98,826.32 -2.89,551.84 -277.37,826.32 -826.32,829.21 -531.62,2.89 -832.1,-300.48 -832.1,-832.1 0,-574.96 262.92,-829.21 849.44,-823.43z"/>
  <path id="XMLID_103_" class="fil3" d="M93133.83 24162.64c0,372.71 -11.55,742.53 2.89,1115.24 8.67,187.8 -57.79,225.37 -231.14,222.47 -499.84,-2.89 -496.94,2.89 -494.06,-508.51 2.89,-644.3 5.78,-1291.49 -8.67,-1935.79 -5.78,-205.13 54.89,-265.81 260.04,-260.04 468.06,8.67 468.06,-2.89 470.94,459.39 0,300.48 0,603.86 0,907.23z"/>
  <path id="XMLID_102_" class="fil5" d="M132.37 522.94c-86.68,132.91 -69.34,280.26 -69.34,427.6 0,5137.05 0,10274.11 0,15411.16 0,98.24 -5.78,196.47 -8.67,291.81 -78.01,-69.34 -49.12,-164.68 -49.12,-248.47 0,-5391.3 0,-10785.5 0,-16176.8 0,-49.12 0,-98.24 0,-228.25 78.01,222.46 127.13,366.92 127.13,522.94z"/>
  <path id="XMLID_101_" class="fil6" d="M92706.23 22515.77c-153.13,17.34 -329.38,40.45 -312.04,-274.47 11.55,-222.47 75.12,-297.59 283.14,-265.81 46.22,8.67 98.24,8.67 144.46,0 228.25,-31.78 309.14,37.56 317.81,294.71 8.67,300.48 -161.8,242.7 -329.38,245.59 -14.44,-0.01 -34.66,-0.01 -104,-0.01z"/>
  <path id="XMLID_5_" class="fil0" d="M13685.75 11941.19c0,-1984.91 5.78,-3972.69 -8.67,-5957.6 -2.89,-280.26 86.68,-329.38 340.93,-326.48 1652.64,11.55 3305.28,2.89 4960.82,5.78 1883.78,2.89 3426.63,1239.48 3787.79,3085.7 193.58,988.12 31.78,1941.56 -534.51,2796.78 -104.01,156.02 -89.57,231.14 28.89,366.93 993.9,1138.36 1207.7,2452.94 710.76,3842.67 -488.28,1372.38 -1519.74,2175.59 -2949.91,2447.18 -236.92,46.22 -485.39,52.01 -728.09,52.01 -1779.76,2.89 -3559.54,-2.89 -5342.2,5.78 -225.37,0 -271.59,-60.67 -271.59,-274.47 8.67,-2013.8 5.78,-4027.6 5.78,-6044.27zm5723.57 3637.54c543.18,31.78 1132.58,-485.39 1144.14,-1121.02 11.55,-609.63 -494.06,-1164.36 -1097.91,-1173.03 -976.56,-11.55 -1956.01,0 -2932.57,-5.78 -161.8,0 -196.47,54.89 -193.58,202.25 5.78,626.97 11.55,1251.04 -2.89,1878 -5.78,196.47 72.24,219.58 236.92,216.7 479.61,-8.67 959.23,-2.89 1438.84,-2.89 468.05,0 938.99,-23.12 1407.06,5.78zm-2897.9 -7231.74c-138.68,-2.89 -184.91,37.56 -182.02,179.13 8.67,635.63 5.78,1271.27 0,1906.89 0,147.35 34.67,208.02 196.47,205.13 849.44,-5.78 1701.76,5.78 2551.19,-5.78 592.3,-8.67 1129.69,-592.3 1106.57,-1173.03 -26,-626.97 -525.84,-1109.47 -1149.91,-1109.47 -390.05,0 -782.98,0 -1173.03,0 -450.72,0 -901.44,5.78 -1349.27,-2.88z"/>
  <path id="XMLID_1_" class="fil0" d="M72354.49 2747.65c0,1834.66 5.78,3614.43 -5.78,5397.09 -2.89,280.26 60.67,286.04 300.48,193.58 3322.62,-1282.82 6677.02,788.76 7251.97,3998.69 499.84,2805.43 -1207.7,5440.41 -3938.02,6133.82 -1126.81,286.04 -2244.93,210.92 -3322.62,-219.58 -176.25,-69.34 -291.81,0 -439.17,2.89 -782.98,11.55 -1565.96,2.89 -2348.94,8.67 -138.68,0 -167.58,-57.79 -158.91,-176.25 5.78,-98.24 0,-196.47 0,-294.71 0,-4432.08 2.89,-8864.16 -8.67,-13296.24 0,-265.81 86.68,-390.05 309.14,-505.61 780.09,-392.92 1545.74,-811.86 2360.51,-1242.36zm115.57 8982.63c-83.79,109.79 -132.91,222.47 -130.01,369.83 8.67,791.65 5.78,1583.29 2.89,2374.94 0,121.35 11.55,231.14 86.68,329.38 650.07,855.22 1485.07,1251.04 2580.09,1129.69 1100.79,-121.35 2288.27,-1155.69 2311.39,-2594.53 26,-1591.95 -1389.73,-2808.32 -2655.2,-2704.31 -947.69,-31.8 -1644,387.14 -2195.83,1095.01z"/>
  <path id="XMLID_3_" class="fil0" d="M90891.79 13290.45c0,1565.96 -5.78,3131.92 5.78,4695 0,216.7 -43.34,291.81 -271.59,277.37 -340.93,-20.22 -684.75,0 -1025.68,-8.67 -447.83,-11.55 -892.77,34.67 -1340.61,-26 -450.72,-60.67 -823.43,216.7 -1245.25,300.48 -3001.91,603.85 -5914.26,-1412.83 -6347.65,-4429.19 -366.93,-2554.07 1011.23,-4929.02 3406.41,-5816.01 1300.16,-482.5 2611.86,-450.72 3897.58,72.24 190.69,78.01 332.26,-14.45 496.94,-11.55 713.64,14.45 1427.28,14.45 2143.81,0 222.47,-5.78 291.81,43.34 288.92,280.26 -14.44,1554.38 -8.66,3111.68 -8.66,4666.08zm-2646.53 -1184.57c0,-109.79 -17.34,-202.25 -83.79,-300.48 -569.18,-860.99 -1687.32,-1346.38 -2686.99,-1155.69 -1473.51,280.26 -2409.63,1690.2 -2169.81,3085.69 340.93,1958.91 2649.43,2909.45 4221.17,1695.97 465.17,-358.26 855.22,-771.43 722.31,-1450.4 -43.34,-216.7 -5.78,-447.83 -5.78,-673.19 0,-401.59 0,-803.19 2.89,-1201.9z"/>
  <path class="fil2" d="M132.37 522.94c300.48,965.01 632.74,1921.34 1115.24,2817 1288.6,2392.28 3146.37,4120.05 5781.35,4937.7 540.29,167.58 1095.02,288.92 1655.53,352.48 150.24,17.34 190.69,63.56 190.69,210.92 -2.89,2620.53 -2.89,5241.05 0,7861.59 0,193.58 -109.79,329.38 -208.02,470.94 -624.07,904.33 -1485.07,1485.07 -2533.86,1771.1 -1375.28,372.71 -2744.77,369.83 -4053.59,-262.92 -901.44,-436.27 -1606.41,-1092.14 -2019.58,-2028.25 -34.67,-104.01 -17.34,-213.8 -17.34,-320.71 0,-4510.09 0,-9020.17 0,-13530.27 0,-655.85 -2.89,-1308.82 0,-1964.68 -5.77,-109.79 -40.44,-239.8 89.58,-314.92zm1875.12 7153.74c0,2669.65 0,5336.41 -5.78,8006.05 0,147.35 52.01,262.92 124.24,381.38 988.12,1606.41 3328.4,1496.62 4394.52,395.83 164.68,-167.58 355.38,-340.93 355.38,-615.4 0,-1906.89 -2.89,-3813.78 5.78,-5717.78 0,-158.91 -60.67,-190.69 -193.58,-210.92 -309.14,-43.34 -618.3,-86.68 -921.66,-156.02 -1470.62,-326.48 -2840.11,-832.1 -3741.55,-2175.59 -11.56,40.46 -17.34,66.46 -17.34,92.46z"/>
  <path id="XMLID_6_" class="fil1" d="M70048.87 23792.81c0,-499.84 5.78,-996.78 -2.89,-1496.62 -2.89,-167.58 49.12,-213.8 213.8,-210.92 430.5,11.55 860.99,-5.78 1291.49,5.78 875.44,20.22 1623.75,837.88 1603.53,1733.54 -23.12,904.33 -762.76,1664.2 -1632.42,1669.97 -421.83,2.89 -840.77,-5.78 -1262.6,2.89 -161.8,2.89 -216.7,-37.56 -213.8,-208.02 8.67,-499.84 2.89,-996.78 2.89,-1496.62zm1513.96 962.11c407.38,-52.01 765.65,-387.16 829.21,-762.76 75.12,-439.17 -124.24,-860.99 -508.51,-1060.35 -283.14,-147.35 -589.4,-106.91 -889.89,-118.46 -167.58,-5.78 -222.47,57.79 -219.58,222.47 8.67,430.5 0,860.99 2.89,1291.49 2.89,525.84 -43.34,427.6 433.39,430.5 118.45,0 239.8,11.55 352.48,-2.89z"/>
  <path id="XMLID_4_" class="fil1" d="M61886.8 24795.38c-384.27,-23.12 -378.48,-23.12 -387.16,375.6 -2.89,106.91 72.24,283.14 -63.56,306.26 -205.13,37.56 -421.83,2.89 -635.63,-11.55 -11.55,0 -28.89,-86.68 -28.89,-130.01 -2.89,-1025.68 2.89,-2048.47 -2.89,-3074.15 0,-144.46 46.22,-182.02 184.91,-179.13 332.26,5.78 661.64,-2.89 993.9,-5.78 991.01,-14.45 1629.53,898.55 1346.38,1788.43 -182.02,572.05 -647.18,878.31 -1407.06,930.32zm208.02 -759.87c8.67,0 20.22,-2.89 28.89,-2.89 306.26,-54.89 531.62,-355.38 494.06,-658.74 -49.12,-398.72 -361.15,-592.3 -907.22,-551.84 -381.38,28.89 -135.79,326.48 -196.47,491.17 -11.55,34.67 -2.89,78.01 -2.89,115.57 -2.88,664.53 11.56,678.98 583.63,606.74z"/>
  <path id="XMLID_90_" class="fil2" d="M50974.17 22088.16c254.25,0 456.5,8.67 658.74,-2.89 144.46,-8.67 225.37,34.67 297.59,167.58 199.35,366.93 418.94,725.19 652.97,1123.91 213.8,-361.15 424.72,-687.64 603.85,-1037.23 104.01,-205.13 231.14,-280.26 453.61,-254.25 164.68,20.22 329.38,2.89 548.96,2.89 -262.92,453.61 -476.72,901.44 -762.76,1297.27 -395.83,551.84 -557.63,1144.14 -470.94,1808.66 31.78,242.7 -52.01,340.93 -297.59,300.48 -75.12,-11.55 -156.02,-11.55 -234.03,0 -184.91,26 -251.37,-52.01 -222.47,-228.25 132.91,-803.2 -167.58,-1476.4 -609.63,-2120.69 -216.71,-323.61 -395.84,-678.99 -618.31,-1057.48z"/>
  <path class="fil2" d="M56599.51 25092.97c-257.14,-34.67 -511.39,-63.56 -586.51,283.14 -20.22,86.68 -83.79,121.35 -173.35,118.46 -222.47,-5.78 -442.05,-2.89 -696.31,-2.89 496.94,-1074.79 979.45,-2120.69 1459.07,-3166.6 75.12,-280.26 297.59,-231.14 508.51,-245.59 228.25,-17.34 242.7,158.91 303.37,286.04 444.94,939.01 884.11,1880.89 1326.16,2822.78 40.45,86.68 106.91,164.68 101.12,300.48 -219.58,0 -439.17,-5.78 -658.74,2.89 -150.24,5.78 -173.35,-109.79 -208.02,-205.13 -54.89,-161.8 -150.24,-219.58 -323.59,-210.92 -346.72,23.11 -699.2,14.44 -1051.69,17.33zm-17.34 -927.45c-60.67,124.24 -46.22,179.13 101.12,176.25 213.8,-2.89 430.5,2.89 644.3,5.78 124.24,2.89 190.69,-26 121.35,-167.58 -138.68,-286.04 -271.59,-574.96 -436.27,-930.33 -164.68,352.5 -291.81,635.64 -430.5,915.89z"/>
 </g>
</svg>
