<?xml version="1.0" encoding="UTF-8"?>
<!DOCTYPE svg PUBLIC "-//W3C//DTD SVG 1.1//EN" "http://www.w3.org/Graphics/SVG/1.1/DTD/svg11.dtd">
<!-- Creator: CorelDRAW -->
<svg xmlns="http://www.w3.org/2000/svg" xml:space="preserve" width="287.726mm" height="43.501mm" version="1.1" style="shape-rendering:geometricPrecision; text-rendering:geometricPrecision; image-rendering:optimizeQuality; fill-rule:evenodd; clip-rule:evenodd"
viewBox="0 0 16850.38 2547.59"
 xmlns:xlink="http://www.w3.org/1999/xlink"
 xmlns:xodm="http://www.corel.com/coreldraw/odm/2003">
 <defs>
  <style type="text/css">
   <![CDATA[
    .fil0 {fill:#1580F4}
    .fil1 {fill:#FEFEFE;fill-rule:nonzero}
   ]]>
  </style>
 </defs>
 <g id="Katman_x0020_1">
  <metadata id="CorelCorpID_0Corel-Layer"/>
  <g id="_2358098728656">
   <path class="fil0" d="M2406.07 70.76l0 2406.07c0,0 -681.84,-594.84 -681.84,-594.84 -3.21,-337.39 3.02,-778.27 0.17,-1119.57l-1126.03 0c0,0 -578.77,-691.66 -578.77,-691.66l2386.48 0z"/>
   <path class="fil0" d="M1615.52 871.33c0,336.89 -1.34,672.44 0,1010.66l-596.18 594.84 0 -1050.98 -1019.34 0 598.36 -554.53c339.06,0 678.11,0 1017.16,0z"/>
  </g>
  <path class="fil1" d="M16044.99 798.65c-13.48,-128.06 -76.94,-217.91 -190.39,-269.59 -113.46,-51.67 -276.9,-77.5 -490.32,-77.5 -204.43,0 -354.95,22.47 -451.55,67.4 -96.6,44.94 -144.9,112.34 -144.9,202.19 0,71.89 26.96,123 80.88,153.33 53.92,30.32 142.66,52.23 266.22,65.71l930.07 80.88c265.1,24.71 465.61,93.23 601.52,205.55 135.92,112.34 203.87,285.32 203.87,518.96 0,204.44 -55.59,365.62 -166.8,483.57 -111.2,117.94 -271.27,200.51 -480.2,247.68 -208.93,47.18 -474.02,70.77 -795.28,70.77 -310.02,0 -567.25,-25.28 -771.69,-75.82 -204.43,-50.55 -363.38,-139.85 -476.83,-267.91 -113.45,-128.06 -173.54,-305.53 -180.28,-532.43l721.14 0c17.97,159.5 87.05,269.03 207.25,328.56 120.19,59.53 295.98,89.29 527.37,89.29 229.16,0 398.77,-24.71 508.85,-74.13 110.08,-49.43 165.12,-124.68 165.12,-225.78 0,-85.37 -28.64,-146.59 -85.93,-183.66 -57.28,-37.07 -140.97,-61.22 -251.05,-72.45l-913.22 -90.99c-267.34,-26.96 -469.53,-92.11 -606.57,-195.46 -137.04,-103.34 -205.56,-266.21 -205.56,-488.62 0,-271.83 115.69,-466.16 347.09,-582.98 231.4,-116.82 562.77,-175.23 994.1,-175.23 433.58,0 769.45,59.54 1007.58,178.6 238.13,119.07 361.7,325.74 370.69,620.05l-721.15 0z"/>
  <polygon class="fil1" points="14026.29,593.08 12947.94,593.08 12947.94,2476.82 12314.41,2476.82 12314.41,593.08 11239.43,593.08 11239.43,70.76 14026.29,70.76 "/>
  <path class="fil1" d="M11252.73 2476.82l-737.99 0 -512.21 -852.57 -997.47 0 0 852.57 -633.53 0 0 -2406.06 1924.17 0c316.77,0 545.92,61.78 687.45,185.34 141.53,123.56 212.29,315.64 212.29,576.24 0,206.68 -47.73,361.7 -143.21,465.03 -95.49,103.34 -227.47,172.99 -395.96,208.93l0 23.59 596.46 946.93zm-1078.34 -1334.45c112.33,0 194.33,-22.47 245.99,-67.4 51.68,-44.94 77.51,-115.7 77.51,-212.3 0,-94.36 -25.83,-164.56 -77.51,-210.62 -51.67,-46.05 -133.67,-69.08 -245.99,-69.08l-1169.33 0 0 559.4 1169.33 0z"/>
  <path class="fil1" d="M7390.73 2038.75l-1408.59 0 -212.3 438.08 -700.92 0 1219.88 -2406.06 808.76 0 1213.14 2406.06 -704.29 0 -215.67 -438.08zm-235.89 -485.26l-458.29 -936.81 -20.22 0 -454.92 936.81 933.43 0z"/>
  <path class="fil1" d="M4590.22 70.76c319.01,0 549.28,62.35 690.82,187.03 141.53,124.68 212.29,320.69 212.29,588.04 0,269.59 -70.76,466.71 -212.29,591.4 -141.54,124.69 -371.81,187.03 -690.82,187.03l-1219.88 0 0 852.57 -633.53 0 0 -2406.06 1853.41 0zm-138.16 1091.83c121.32,0 209.48,-24.72 264.52,-74.14 55.05,-49.43 82.56,-124.69 82.56,-225.78 0,-103.35 -27.51,-179.17 -82.56,-227.47 -55.04,-48.3 -143.21,-72.45 -264.52,-72.45l-1081.72 0 0 599.84 1081.72 0z"/>
 </g>
</svg>
