<?xml version="1.0" encoding="UTF-8"?>
<!DOCTYPE svg PUBLIC "-//W3C//DTD SVG 1.1//EN" "http://www.w3.org/Graphics/SVG/1.1/DTD/svg11.dtd">
<!-- Creator: CorelDRAW -->
<svg xmlns="http://www.w3.org/2000/svg" xml:space="preserve" width="914.525mm" height="233.736mm" version="1.1" style="shape-rendering:geometricPrecision; text-rendering:geometricPrecision; image-rendering:optimizeQuality; fill-rule:evenodd; clip-rule:evenodd"
viewBox="0 0 98485.94 25171.26"
 xmlns:xlink="http://www.w3.org/1999/xlink"
 xmlns:xodm="http://www.corel.com/coreldraw/odm/2003">
 <defs>
  <style type="text/css">
   <![CDATA[
    .fil0 {fill:#FEFEFE;fill-rule:nonzero}
    .fil1 {fill:#B62125;fill-rule:nonzero}
   ]]>
  </style>
 </defs>
 <g id="Katman_x0020_1">
  <metadata id="CorelCorpID_0Corel-Layer"/>
  <path id="XMLID_123_" class="fil0" d="M37120.4 8225.97c68.38,2.85 133.91,8.55 202.3,11.39 219.4,8.55 515.73,-102.58 632.55,39.89 111.13,133.91 39.89,421.7 39.89,641.09 2.85,1379.07 0,2758.14 0,4137.2 0,1182.47 689.53,2165.48 1780.82,2538.75 1085.59,373.26 2233.86,14.25 2963.3,-917.48 102.58,-131.07 133.91,-264.98 133.91,-427.4 -2.85,-1909.03 2.85,-3818.08 -8.55,-5729.97 0,-236.49 51.29,-313.42 296.33,-307.73 695.23,14.25 1387.62,14.25 2082.85,-5.7 239.34,-5.7 282.09,74.08 276.39,290.64 -11.39,529.98 2.85,1059.95 5.7,1589.93 82.63,108.27 74.08,236.49 74.08,359.02 0,2504.54 34.19,5009.1 -11.39,7513.64 -34.19,1889.1 -951.67,3310.91 -2547.3,4305.32 -111.13,71.24 -227.95,151.01 -373.26,128.22 -606.9,276.39 -1245.15,433.1 -1911.89,484.38 -227.95,17.1 -341.92,-2.85 -330.52,-290.64 25.64,-672.44 19.94,-1347.73 2.85,-2023.01 -5.7,-245.04 42.74,-339.06 316.28,-356.17 1122.63,-74.08 2108.5,-1156.83 2108.5,-2307.95 -378.96,139.62 -746.52,284.93 -1136.88,356.17 -1507.29,276.39 -2903.45,45.59 -4160,-866.19 -22.8,-17.1 -51.29,-25.64 -76.93,-37.05 -780.72,-643.95 -1421.81,-1396.17 -1786.53,-2359.24 -227.95,-598.36 -324.83,-1219.51 -324.83,-1857.75 2.85,-1552.87 5.7,-3105.75 -2.85,-4655.78 0,-202.3 48.44,-259.29 250.74,-253.59 501.48,17.11 1002.97,2.86 1504.45,0.01z"/>
  <path id="XMLID_121_" class="fil0" d="M61034.72 18021.93c-675.29,-5.7 -1347.73,-19.94 -2023.01,-8.55 -233.65,5.7 -284.93,-68.38 -284.93,-290.64 8.55,-2535.89 5.7,-5071.77 5.7,-7607.68 0,-105.43 -8.55,-210.85 -14.25,-316.28 5.7,-963.07 11.39,-1928.99 14.25,-2892.06 2.85,-829.15 0,-1658.31 0,-2490.31 0,-113.97 -17.1,-222.25 119.68,-290.64 823.46,-421.7 1646.9,-849.1 2498.86,-1290.74 0,3202.64 0,6371.07 0,9536.67 17.1,8.55 37.05,17.1 54.14,25.64 165.26,-222.25 333.37,-441.64 498.63,-663.89 806.36,-1102.69 1609.87,-2205.38 2416.23,-3308.06 65.53,-91.18 111.13,-193.76 259.28,-190.9 1031.45,5.7 2060.06,2.85 3142.79,2.85 -256.44,356.17 -484.38,680.98 -718.03,1002.96 -926.03,1273.65 -1843.51,2555.84 -2789.47,3815.23 -176.66,236.49 -119.68,364.72 19.94,555.62 1037.14,1407.56 2068.6,2820.83 3100.05,4234.09 31.34,45.59 62.69,91.18 116.82,173.81 -416,0 -797.81,0 -1176.77,0 -618.31,0 -1233.76,-8.55 -1852.05,5.7 -176.66,2.85 -273.53,-56.99 -373.26,-196.6 -871.9,-1208.11 -1749.48,-2410.53 -2629.92,-3618.64 -94.02,65.53 -48.44,159.57 -48.44,236.49 -2.85,1071.34 -14.25,2142.69 5.7,3214.03 2.82,279.25 -76.96,384.68 -341.94,361.88z"/>
  <path id="XMLID_119_" class="fil0" d="M54361.62 13329.1c0,-1621.25 2.85,-3242.52 2.85,-4863.78 -17.1,-170.96 39.89,-239.34 233.65,-236.49 792.11,14.25 1587.07,5.7 2379.18,5.7 8.55,461.6 19.94,926.03 19.94,1387.62 2.85,2689.76 -2.85,5382.35 8.55,8072.12 0,256.44 -62.69,336.22 -319.12,316.28 -287.78,-19.94 -578.41,2.85 -866.19,8.55 -94.02,85.48 -213.7,82.63 -327.67,79.78 -393.21,-14.25 -792.11,39.89 -1182.47,-48.44 -119.68,-28.49 -225.1,37.05 -333.37,76.93 -2775.24,1000.11 -5738.53,-341.92 -6846.92,-3065.87 -236.49,-578.41 -339.06,-1188.16 -359.02,-1806.47 -19.94,-675.28 -5.7,-1350.57 -2.85,-2025.86 0,-113.97 -17.1,-233.65 71.24,-330.52 2.85,-789.27 19.94,-1581.37 2.85,-2370.63 -5.7,-270.68 79.78,-310.58 319.12,-304.87 675.29,17.1 1350.58,14.25 2023.01,0 239.34,-5.7 324.83,37.05 321.97,307.73 -14.25,1193.86 2.85,2390.57 5.7,3584.45 116.82,142.46 71.24,313.42 76.93,472.99 17.1,478.67 -54.14,963.06 145.32,1427.5 378.96,883.29 1017.2,1444.61 1971.73,1601.32 888.99,145.32 1655.46,-122.52 2285.16,-769.32 213.7,-219.4 319.12,-467.29 313.42,-780.72 -8.57,-242.19 -68.41,-498.63 56.97,-737.97z"/>
  <path id="XMLID_118_" class="fil0" d="M34006.09 13126.8c0,1532.94 -5.7,3068.71 5.7,4601.65 2.85,236.49 -68.38,293.48 -290.64,282.09 -364.72,-17.1 -735.13,17.1 -1099.84,-11.39 -418.85,-31.34 -834.85,0 -1259.4,-51.29 -390.36,-45.59 -797.81,259.29 -1222.36,330.52 -1746.64,284.93 -3293.81,-96.88 -4607.35,-1324.93 -837.71,-786.41 -1387.62,-1726.69 -1589.93,-2860.72 -45.59,-264.98 -82.63,-532.82 -82.63,-800.66 -8.55,-1601.31 0,-3202.63 -8.55,-4806.79 0,-196.6 39.89,-259.29 247.89,-256.44 715.17,14.25 1427.51,11.39 2142.69,0 190.9,-2.85 239.34,51.29 236.49,236.49 -8.55,1475.95 -5.7,2951.89 -2.85,4427.85 2.85,686.68 153.87,1319.22 601.21,1874.84 1077.05,1336.34 3194.09,1279.35 4182.8,-122.52 94.02,-133.91 125.37,-267.84 122.52,-430.25 -2.85,-1900.48 0,-3800.98 -8.55,-5701.47 0,-216.54 39.89,-293.48 276.39,-287.78 695.23,17.1 1390.47,14.25 2082.85,0 210.85,-2.85 270.68,42.74 270.68,264.98 -2.82,1547.17 2.88,3091.51 2.88,4635.83z"/>
  <path id="XMLID_117_" class="fil0" d="M94442.97 18372.4c-1487.35,-17.1 -2860.72,-381.81 -4065.97,-1290.74 -148.15,-111.13 -142.45,-182.35 -37.05,-304.87 470.13,-549.92 937.43,-1096.99 1396.17,-1655.46 99.72,-122.52 173.81,-131.07 304.87,-56.99 646.79,370.41 1336.34,618.31 2085.7,666.75 455.89,31.34 903.24,-14.25 1333.48,-159.57 208,-71.24 367.56,-210.85 381.81,-455.89 14.25,-247.89 -151.01,-370.41 -347.62,-438.8 -649.64,-227.95 -1324.93,-361.86 -1988.82,-532.82 -666.75,-173.81 -1327.78,-330.52 -1880.55,-800.66 -1336.32,-1134.02 -1379.06,-3214.02 -88.33,-4405.04 948.82,-874.74 2057.21,-1159.67 3313.75,-1074.19 1239.46,82.63 2393.43,390.36 3430.58,1091.28 153.87,102.58 239.34,153.87 62.69,347.62 -481.54,524.27 -934.57,1074.19 -1387.62,1624.12 -102.58,122.52 -168.11,125.37 -302.03,56.99 -860.49,-453.04 -1772.28,-598.36 -2732.49,-433.1 -145.32,25.64 -279.23,71.24 -398.91,148.16 -185.21,119.68 -341.92,270.68 -296.33,515.73 42.74,225.1 225.1,324.83 430.25,376.11 723.73,179.51 1453.16,339.06 2174.03,529.98 1210.96,319.12 2165.48,968.75 2535.89,2225.31 421.7,1427.51 -279.23,3088.66 -2003.07,3724.06 -618.29,230.78 -1262.23,307.72 -1920.43,302.02z"/>
  <path id="XMLID_116_" class="fil1" d="M94796.29 23304.56c0,538.52 -8.55,1077.05 5.7,1615.57 2.85,176.66 -39.89,227.95 -222.25,225.1 -495.79,-5.7 -495.79,5.7 -495.79,-495.79 0,-849.1 -2.85,-1695.34 5.7,-2544.44 0,-105.43 -96.88,-296.33 82.63,-307.73 188.06,-11.39 413.16,-113.97 575.56,122.52 273.53,396.05 575.56,769.32 857.65,1159.67 105.43,145.32 170.96,199.45 302.03,8.55 262.14,-381.81 569.87,-729.42 820.6,-1116.94 176.66,-273.53 416,-170.96 641.09,-179.51 96.88,-2.85 74.08,96.88 74.08,159.57 2.85,1011.51 0,2023.01 2.85,3034.52 0,102.58 -28.49,148.16 -142.46,159.57 -578.41,62.69 -592.65,54.14 -595.51,-515.73 0,-433.1 0,-866.19 0,-1384.77 -245.04,321.97 -441.64,584.11 -641.09,846.25 -202.3,267.84 -410.3,267.84 -618.31,-5.7 -199.45,-264.98 -398.91,-535.68 -595.51,-803.51 -19.94,8.58 -37.03,17.12 -56.98,22.82z"/>
  <path id="XMLID_115_" class="fil1" d="M80452.82 23617.99c0,-478.69 0,-960.23 0,-1438.91 0,-396.05 0,-376.11 376.11,-401.75 276.39,-17.1 373.26,42.74 364.72,347.62 -25.64,894.68 -5.7,1792.22 -14.25,2689.76 0,105.43 94.02,302.03 -76.93,310.58 -199.45,8.55 -438.8,131.07 -609.76,-102.58 -396.05,-544.22 -794.96,-1088.44 -1193.86,-1629.81 -28.49,-39.89 -56.99,-76.93 -142.46,-188.06 0,333.37 0,589.81 0,849.1 0,307.73 -5.7,618.31 2.85,926.03 2.85,128.22 -39.89,156.71 -162.41,165.26 -558.46,28.49 -558.46,34.19 -561.32,-521.43 0,-829.15 -5.7,-1658.31 5.7,-2487.45 0,-113.97 -96.88,-321.97 85.48,-339.06 205.15,-19.94 447.35,-113.97 624,142.46 353.31,515.73 732.28,1014.36 1102.69,1518.69 42.74,59.83 94.02,116.82 139.62,173.81 19.92,-2.86 39.87,-8.56 59.81,-14.26z"/>
  <path id="XMLID_112_" class="fil1" d="M83413.26 23464.13c0,-490.08 5.7,-983.01 -2.85,-1473.1 -2.85,-162.41 37.05,-213.7 205.15,-210.85 606.9,8.55 1213.82,11.39 1820.72,0 188.06,-2.85 219.4,59.83 216.54,230.79 -2.85,495.79 5.7,495.79 -501.48,492.93 -250.74,0 -504.33,19.94 -752.22,-5.7 -293.48,-34.19 -256.44,139.62 -270.68,330.52 -17.1,227.95 54.14,304.87 284.93,282.09 227.95,-22.8 461.6,5.7 692.39,-8.55 176.66,-8.55 253.59,31.34 250.74,233.65 -5.7,490.08 5.7,490.08 -478.69,490.08 -133.91,0 -273.53,17.1 -404.61,-2.85 -279.23,-42.74 -364.72,54.14 -347.62,336.22 11.39,208 48.44,287.78 273.53,273.53 344.77,-19.94 692.39,2.85 1040,-8.55 159.57,-5.7 213.7,39.89 213.7,208 5.7,512.88 14.25,512.88 -504.33,512.88 -510.02,0 -1022.9,-5.7 -1532.94,2.85 -162.41,2.85 -210.85,-37.05 -208,-208 11.4,-492.93 5.71,-983.01 5.71,-1475.95 0,0 0,0 0,0z"/>
  <path id="XMLID_111_" class="fil1" d="M74167.22 23464.13c0,-490.08 8.55,-983.01 -2.85,-1473.1 -2.85,-162.41 39.89,-210.85 205.15,-208 606.9,8.55 1213.82,8.55 1820.72,0 153.87,-2.85 213.7,28.49 216.54,202.3 2.85,521.43 11.39,521.43 -510.02,518.57 -279.23,0 -558.46,0 -837.71,0 -276.39,-2.85 -162.41,208 -173.81,336.22 -11.39,119.68 -56.99,282.09 176.66,267.84 279.23,-14.25 558.46,2.85 837.71,-5.7 142.46,-2.85 199.45,31.34 202.3,190.9 14.25,529.98 22.8,529.98 -495.79,529.98 -125.37,0 -253.59,17.1 -376.11,-2.85 -304.87,-54.14 -378.96,76.93 -359.02,359.02 11.39,182.35 45.59,256.44 242.2,247.89 347.62,-14.25 692.39,2.85 1040,-5.7 176.66,-5.7 253.59,28.49 253.59,233.65 -5.7,487.24 5.7,487.24 -475.83,487.24 -521.43,0 -1040,-5.7 -1561.43,2.85 -165.26,2.85 -208,-45.59 -205.15,-208 11.42,-490.09 2.86,-983.02 2.86,-1473.1z"/>
  <path id="XMLID_110_" class="fil1" d="M87772.73 23808.9c0,-356.17 -11.39,-715.17 5.7,-1068.5 8.55,-199.45 -71.24,-256.44 -250.74,-239.34 -76.93,8.55 -156.71,-8.55 -230.79,5.7 -284.93,51.29 -359.02,-71.24 -341.92,-344.77 22.8,-376.11 5.7,-376.11 393.21,-376.11 569.87,0 1136.88,5.7 1706.74,-2.85 170.96,-2.85 253.59,19.94 250.74,227.95 -8.55,492.93 2.85,507.18 -504.33,490.08 -253.59,-8.55 -330.52,59.83 -321.97,316.28 19.94,703.78 0,1407.56 14.25,2111.34 2.85,182.35 -48.44,225.1 -225.1,222.25 -495.79,-5.7 -495.79,2.85 -490.08,-498.63 -0.01,-284.93 -2.86,-564.16 -5.71,-843.39 2.84,0 2.84,0 0,0z"/>
  <path id="XMLID_109_" class="fil1" d="M65228.9 23461.28c0,501.48 -5.7,1000.11 2.85,1501.59 2.85,136.77 -31.34,176.66 -173.81,182.35 -552.76,19.94 -552.76,25.64 -552.76,-527.12 0,-857.65 5.7,-1715.29 -5.7,-2570.08 -2.85,-208 37.03,-282.09 262.13,-273.53 470.13,17.1 470.13,2.85 470.13,472.99 0,404.61 0,809.21 0,1213.82 2.85,0 0,0 -2.85,0z"/>
  <path id="XMLID_108_" class="fil0" d="M94571.19 20335.58c-538.52,2.85 -817.75,-273.53 -817.75,-817.75 -2.85,-538.52 276.39,-823.46 812.05,-837.71 538.52,-14.25 843.4,282.09 851.94,829.15 5.7,547.06 -276.39,823.45 -846.25,826.3z"/>
  <path id="XMLID_107_" class="fil0" d="M28079.51 5442.2c547.07,0 812.05,270.68 806.36,814.91 -8.55,532.82 -299.18,820.6 -829.15,817.75 -529.98,0 -823.46,-296.33 -823.46,-823.46 2.85,-555.62 267.84,-809.2 846.26,-809.2z"/>
  <path id="XMLID_106_" class="fil0" d="M51307.14 7029.26c-148.16,19.94 -293.48,59.83 -447.35,45.59 -470.13,-48.44 -675.29,-262.14 -720.88,-752.22 2.85,-302.03 22.8,-598.36 316.28,-780.72 361.86,-225.1 1020.06,-102.58 1210.96,222.25 264.99,455.9 105.43,1022.91 -359.01,1265.1z"/>
  <path id="XMLID_105_" class="fil0" d="M52275.92 6248.55c0,-584.11 230.79,-809.21 829.15,-803.51 535.68,2.85 800.66,264.98 806.36,792.11 5.7,535.68 -299.18,843.4 -834.85,840.55 -541.37,-5.7 -800.66,-273.53 -800.66,-829.14z"/>
  <path id="XMLID_104_" class="fil0" d="M30199.4 5445.04c558.46,2.85 803.51,253.59 797.81,814.91 -2.85,544.22 -273.53,814.91 -814.91,817.75 -524.27,2.85 -820.6,-296.33 -820.6,-820.6 0,-567.01 259.29,-817.75 837.71,-812.05z"/>
  <path id="XMLID_103_" class="fil1" d="M91847.24 23828.84c0,367.56 -11.39,732.28 2.85,1099.84 8.55,185.21 -56.99,222.25 -227.95,219.4 -492.93,-2.85 -490.08,2.85 -487.24,-501.48 2.85,-635.4 5.7,-1273.65 -8.55,-1909.05 -5.7,-202.3 54.14,-262.14 256.44,-256.44 461.6,8.55 461.6,-2.85 464.44,453.04 0,296.33 0,595.52 0,894.7z"/>
  <path id="XMLID_102_" class="fil0" d="M130.54 515.72c-85.48,131.07 -68.38,276.39 -68.38,421.7 0,5066.09 0,10132.18 0,15198.26 0,96.88 -5.7,193.76 -8.55,287.78 -76.93,-68.38 -48.44,-162.41 -48.44,-245.04 0,-5316.82 0,-10636.5 0,-15953.33 0,-48.44 0,-96.88 0,-225.1 76.93,219.39 125.37,361.85 125.37,515.72z"/>
  <path id="XMLID_101_" class="fil1" d="M91425.54 22204.72c-151.01,17.1 -324.83,39.89 -307.73,-270.68 11.39,-219.4 74.08,-293.48 279.23,-262.14 45.59,8.55 96.88,8.55 142.46,0 225.1,-31.34 304.87,37.05 313.42,290.64 8.55,296.33 -159.57,239.34 -324.83,242.2 -14.24,-0.01 -34.18,-0.01 -102.56,-0.01z"/>
  <path id="XMLID_5_" class="fil0" d="M13496.68 11776.23c0,-1957.49 5.7,-3917.81 -8.55,-5875.3 -2.85,-276.39 85.48,-324.83 336.22,-321.97 1629.81,11.39 3259.62,2.85 4892.29,5.7 1857.75,2.85 3379.29,1222.36 3735.46,3043.07 190.9,974.47 31.34,1914.74 -527.12,2758.14 -102.58,153.87 -88.33,227.95 28.49,361.86 980.17,1122.63 1191.02,2419.06 700.94,3789.59 -481.54,1353.43 -1498.74,2145.53 -2909.16,2413.37 -233.65,45.59 -478.69,51.29 -718.03,51.29 -1755.18,2.85 -3510.37,-2.85 -5268.4,5.7 -222.25,0 -267.84,-59.83 -267.84,-270.68 8.55,-1985.98 5.7,-3971.96 5.7,-5960.77zm5644.51 3587.29c535.68,31.34 1116.94,-478.69 1128.33,-1105.53 11.39,-601.21 -487.24,-1148.27 -1082.74,-1156.83 -963.07,-11.39 -1928.99,0 -2892.06,-5.7 -159.57,0 -193.76,54.14 -190.9,199.45 5.7,618.31 11.39,1233.76 -2.85,1852.06 -5.7,193.76 71.24,216.54 233.65,213.7 472.99,-8.55 945.98,-2.85 1418.97,-2.85 461.58,0 926.02,-22.8 1387.62,5.7zm-2857.87 -7131.83c-136.77,-2.85 -182.35,37.05 -179.51,176.66 8.55,626.85 5.7,1253.7 0,1880.55 0,145.32 34.19,205.15 193.76,202.3 837.71,-5.7 1678.25,5.7 2515.95,-5.7 584.11,-8.55 1114.08,-584.11 1091.28,-1156.83 -25.64,-618.31 -518.57,-1094.14 -1134.03,-1094.14 -384.66,0 -772.16,0 -1156.83,0 -444.49,0 -888.99,5.7 -1330.63,-2.84z"/>
  <path id="XMLID_1_" class="fil0" d="M71354.95 2709.69c0,1809.31 5.7,3564.5 -5.7,5322.53 -2.85,276.39 59.83,282.09 296.33,190.9 3276.72,-1265.1 6584.78,777.86 7151.79,3943.45 492.93,2766.67 -1191.02,5365.25 -3883.62,6049.09 -1111.24,282.09 -2213.92,208 -3276.72,-216.54 -173.81,-68.38 -287.78,0 -433.1,2.85 -772.16,11.39 -1544.33,2.85 -2316.49,8.55 -136.77,0 -165.26,-56.99 -156.71,-173.81 5.7,-96.88 0,-193.76 0,-290.64 0,-4370.86 2.85,-8741.7 -8.55,-13112.56 0,-262.14 85.48,-384.66 304.87,-498.63 769.31,-387.49 1524.38,-800.65 2327.9,-1225.2zm113.97 8858.54c-82.63,108.27 -131.07,219.4 -128.22,364.72 8.55,780.72 5.7,1561.42 2.85,2342.14 0,119.68 11.39,227.95 85.48,324.83 641.09,843.4 1464.55,1233.76 2544.44,1114.08 1085.59,-119.68 2256.66,-1139.72 2279.46,-2558.69 25.64,-1569.96 -1370.53,-2769.53 -2618.52,-2666.95 -934.59,-31.36 -1621.29,381.8 -2165.5,1079.88z"/>
  <path id="XMLID_3_" class="fil0" d="M89636.18 13106.85c0,1544.33 -5.7,3088.66 5.7,4630.14 0,213.7 -42.74,287.78 -267.84,273.53 -336.22,-19.94 -675.29,0 -1011.51,-8.55 -441.64,-11.39 -880.44,34.19 -1322.09,-25.64 -444.49,-59.83 -812.05,213.7 -1228.05,296.33 -2960.44,595.51 -5832.56,-1393.31 -6259.96,-4368 -361.86,-2518.79 997.26,-4860.93 3359.35,-5735.67 1282.2,-475.83 2575.78,-444.49 3843.73,71.24 188.06,76.93 327.67,-14.25 490.08,-11.39 703.78,14.25 1407.56,14.25 2114.2,0 219.4,-5.7 287.78,42.74 284.93,276.39 -14.24,1532.9 -8.54,3068.69 -8.54,4601.62zm-2609.97 -1168.21c0,-108.27 -17.1,-199.45 -82.63,-296.33 -561.32,-849.1 -1664.01,-1327.78 -2649.87,-1139.72 -1453.16,276.39 -2376.34,1666.85 -2139.84,3043.06 336.22,1931.84 2612.83,2869.26 4162.85,1672.55 458.74,-353.31 843.4,-760.77 712.33,-1430.36 -42.74,-213.7 -5.7,-441.64 -5.7,-663.89 0,-396.04 0,-792.1 2.85,-1185.3z"/>
  <path class="fil1" d="M130.54 515.72c296.33,951.67 624,1894.8 1099.84,2778.09 1270.79,2359.24 3102.91,4063.13 5701.49,4869.49 532.82,165.26 1079.89,284.93 1632.66,347.62 148.16,17.1 188.06,62.69 188.06,208 -2.85,2584.33 -2.85,5168.65 0,7752.98 0,190.9 -108.27,324.83 -205.15,464.44 -615.45,891.84 -1464.55,1464.55 -2498.86,1746.64 -1356.28,367.56 -2706.85,364.72 -3997.59,-259.29 -888.99,-430.25 -1584.22,-1077.05 -1991.68,-2000.23 -34.19,-102.58 -17.1,-210.85 -17.1,-316.28 0,-4447.78 0,-8895.56 0,-13343.35 0,-646.79 -2.85,-1290.74 0,-1937.54 -5.69,-108.27 -39.88,-236.49 88.34,-310.57zm1849.21 7054.91c0,2632.77 0,5262.69 -5.7,7895.45 0,145.32 51.29,259.29 122.52,376.11 974.47,1584.22 3282.42,1475.95 4333.81,390.36 162.41,-165.26 350.47,-336.22 350.47,-606.9 0,-1880.55 -2.85,-3761.09 5.7,-5638.79 0,-156.71 -59.83,-188.06 -190.9,-208 -304.87,-42.74 -609.76,-85.48 -908.93,-153.87 -1450.3,-321.97 -2800.88,-820.6 -3689.86,-2145.53 -11.4,39.9 -17.1,65.54 -17.1,91.18z"/>
  <path id="XMLID_6_" class="fil1" d="M69081.19 23464.13c0,-492.93 5.7,-983.01 -2.85,-1475.95 -2.85,-165.26 48.44,-210.85 210.85,-208 424.55,11.39 849.1,-5.7 1273.65,5.7 863.35,19.94 1601.32,826.3 1581.37,1709.59 -22.8,891.84 -752.22,1641.21 -1609.87,1646.9 -416,2.85 -829.15,-5.7 -1245.15,2.85 -159.57,2.85 -213.7,-37.05 -210.85,-205.15 8.55,-492.93 2.85,-983.01 2.85,-1475.95zm1493.05 948.82c401.75,-51.29 755.07,-381.81 817.75,-752.22 74.08,-433.1 -122.52,-849.1 -501.48,-1045.7 -279.23,-145.32 -581.26,-105.43 -877.59,-116.82 -165.26,-5.7 -219.4,56.99 -216.54,219.4 8.55,424.55 0,849.1 2.85,1273.65 2.85,518.57 -42.74,421.7 427.4,424.55 116.81,0 236.49,11.39 347.62,-2.85z"/>
  <path id="XMLID_4_" class="fil1" d="M61031.87 24452.85c-378.96,-22.8 -373.26,-22.8 -381.81,370.41 -2.85,105.43 71.24,279.23 -62.69,302.03 -202.3,37.05 -416,2.85 -626.85,-11.39 -11.39,0 -28.49,-85.48 -28.49,-128.22 -2.85,-1011.51 2.85,-2020.17 -2.85,-3031.68 0,-142.46 45.59,-179.51 182.35,-176.66 327.67,5.7 652.5,-2.85 980.17,-5.7 977.32,-14.25 1607.02,886.13 1327.78,1763.73 -179.51,564.15 -638.24,866.18 -1387.62,917.47zm205.15 -749.38c8.55,0 19.94,-2.85 28.49,-2.85 302.03,-54.14 524.27,-350.47 487.24,-649.64 -48.44,-393.21 -356.17,-584.11 -894.68,-544.22 -376.11,28.49 -133.91,321.97 -193.76,484.38 -11.39,34.19 -2.85,76.93 -2.85,113.97 -2.84,655.35 11.4,669.6 575.56,598.36z"/>
  <path id="XMLID_90_" class="fil1" d="M50269.99 21783.03c250.74,0 450.19,8.55 649.64,-2.85 142.46,-8.55 222.25,34.19 293.48,165.26 196.6,361.86 413.16,715.17 643.95,1108.39 210.85,-356.17 418.85,-678.14 595.51,-1022.9 102.58,-202.3 227.95,-276.39 447.35,-250.74 162.41,19.94 324.83,2.85 541.37,2.85 -259.29,447.35 -470.13,888.99 -752.22,1279.35 -390.36,544.22 -549.92,1128.33 -464.44,1783.67 31.34,239.34 -51.29,336.22 -293.48,296.33 -74.08,-11.39 -153.87,-11.39 -230.79,0 -182.35,25.64 -247.89,-51.29 -219.4,-225.1 131.07,-792.11 -165.26,-1456 -601.21,-2091.4 -213.71,-319.14 -390.37,-669.61 -609.77,-1042.87z"/>
  <path class="fil1" d="M55817.62 24746.32c-253.59,-34.19 -504.33,-62.69 -578.41,279.23 -19.94,85.48 -82.63,119.68 -170.96,116.82 -219.4,-5.7 -435.94,-2.85 -686.69,-2.85 490.08,-1059.95 965.92,-2091.4 1438.91,-3122.85 74.08,-276.39 293.48,-227.95 501.48,-242.2 225.1,-17.1 239.34,156.71 299.18,282.09 438.8,926.03 871.9,1854.91 1307.84,2783.79 39.89,85.48 105.43,162.41 99.72,296.33 -216.54,0 -433.1,-5.7 -649.64,2.85 -148.16,5.7 -170.96,-108.27 -205.15,-202.3 -54.14,-159.57 -148.16,-216.54 -319.12,-208 -341.93,22.79 -689.54,14.24 -1037.16,17.09zm-17.1 -914.64c-59.83,122.52 -45.59,176.66 99.72,173.81 210.85,-2.85 424.55,2.85 635.4,5.7 122.52,2.85 188.06,-25.64 119.68,-165.26 -136.77,-282.09 -267.84,-567.01 -430.25,-917.48 -162.41,347.63 -287.78,626.86 -424.55,903.24z"/>
 </g>
</svg>
